<svg xmlns="http://www.w3.org/2000/svg" width="68.727" height="54" viewBox="0 0 68.727 54"><defs><style>.a{fill:#4aece7;}</style></defs><path class="a" d="M97.383,208h-.061a3.352,3.352,0,0,0-3.344,3.344.34.34,0,0,1-.337.337H39.088a.34.34,0,0,1-.338-.337A3.352,3.352,0,0,0,35.406,208h-.061A3.352,3.352,0,0,0,32,211.344v27.675a3.352,3.352,0,0,0,3.344,3.344h.061a3.352,3.352,0,0,0,3.344-3.344v-.951a.615.615,0,0,1,.614-.614h54a.615.615,0,0,1,.614.614v.951a3.352,3.352,0,0,0,3.344,3.344h.061a3.352,3.352,0,0,0,3.344-3.344V211.344A3.352,3.352,0,0,0,97.383,208Z" transform="translate(-32 -188.364)"/><path class="a" d="M77.227,100.557h3.452a.615.615,0,0,0,.614-.614V97.949a2.462,2.462,0,0,1,2.455-2.455H98.7a2.462,2.462,0,0,1,2.455,2.455v1.994a.615.615,0,0,0,.614.614h3.682a.615.615,0,0,0,.614-.614V97.949a2.462,2.462,0,0,1,2.455-2.455H123.48a2.462,2.462,0,0,1,2.455,2.455v1.994a.615.615,0,0,0,.614.614H130a1.231,1.231,0,0,0,1.227-1.227V84.909A4.924,4.924,0,0,0,126.318,80H80.909A4.924,4.924,0,0,0,76,84.909V99.33A1.231,1.231,0,0,0,77.227,100.557Z" transform="translate(-69.25 -80)"/></svg>