<svg xmlns="http://www.w3.org/2000/svg" width="61.036" height="61.031" viewBox="0 0 61.036 61.031"><defs><style>.a{fill:#4aece7;}</style></defs><path class="a" d="M123.131,111.824c-2.336-2.336-7.945-5.847-10.709-7.166-3.21-1.541-4.385-1.509-6.658.127-1.891,1.366-3.114,2.638-5.291,2.161-2.177-.461-6.467-3.718-10.63-7.865-4.163-4.163-7.4-8.453-7.865-10.63-.461-2.193.81-3.4,2.161-5.291,1.637-2.272,1.684-3.448.127-6.658-1.319-2.781-4.814-8.374-7.166-10.709-2.336-2.336-2.86-1.827-4.147-1.366a23.6,23.6,0,0,0-3.8,2.018,11.456,11.456,0,0,0-4.56,4.814c-.906,1.954-1.954,5.593,3.384,15.095A84.227,84.227,0,0,0,82.788,106.1l.016.016.016.016a84.556,84.556,0,0,0,19.75,14.809c9.5,5.339,13.14,4.29,15.095,3.384a11.261,11.261,0,0,0,4.814-4.56,23.6,23.6,0,0,0,2.018-3.8C124.958,114.684,125.482,114.16,123.131,111.824Z" transform="translate(-63.857 -64.035)"/></svg>