<svg xmlns="http://www.w3.org/2000/svg" width="71.183" height="50.845" viewBox="0 0 71.183 50.845"><defs><style>.a{fill:#4aece7;}</style></defs><path class="a" d="M103.183,101.085A5.1,5.1,0,0,0,98.1,96H37.085A5.1,5.1,0,0,0,32,101.085v7.627h71.183ZM32,141.761a5.1,5.1,0,0,0,5.085,5.085H98.1a5.1,5.1,0,0,0,5.085-5.085V116.338H32Zm22.563-7.627H80.621a2.224,2.224,0,0,1,0,4.449H54.563a2.224,2.224,0,0,1,0-4.449Zm-11.44,0h1.907a2.224,2.224,0,0,1,0,4.449H43.122a2.224,2.224,0,0,1,0-4.449Z" transform="translate(-32 -96)"/></svg>