<svg xmlns="http://www.w3.org/2000/svg" xmlns:xlink="http://www.w3.org/1999/xlink" width="99.224" height="74.742" viewBox="0 0 99.224 74.742">
  <defs>
    <clipPath id="clip-path">
      <rect width="99.224" height="74.742" fill="none"/>
    </clipPath>
  </defs>
  <g id="Logo" clip-path="url(#clip-path)">
    <text id="iWatch" transform="translate(5 65.742)" fill="#4aece7" font-size="24" font-family="HarlowSolid, Harlow Solid" letter-spacing="0.03em"><tspan x="0" y="0">i</tspan><tspan y="0" fill="#372f33">Watch</tspan></text>
    <g id="smartwatch" transform="translate(0 -0.5)">
      <path id="Path_3" data-name="Path 3" d="M96.766,102.988a.965.965,0,0,0-.965.965v11.936a.965.965,0,0,0,1.931,0V103.953A.966.966,0,0,0,96.766,102.988Zm0,0" transform="translate(-77.047 -89.316)" fill="#372f33"/>
      <path id="Path_4" data-name="Path 4" d="M401.2,103.953v11.936a.965.965,0,1,0,1.931,0V103.953a.965.965,0,1,0-1.931,0Zm0,0" transform="translate(-322.659 -89.316)" fill="#372f33"/>
      <path id="Path_5" data-name="Path 5" d="M254.032,71.761c-4.87-3.611-11.205,4.375-.392,9.181a.968.968,0,0,0,.784,0C265.282,76.116,258.859,68.183,254.032,71.761Zm0,7.237c-6.092-2.879-4.674-6.186-2.678-6.186a2.48,2.48,0,0,1,1.9.841.951.951,0,0,0,1.556-.005,2.473,2.473,0,0,1,1.9-.836c1.994,0,3.418,3.3-2.678,6.186Zm0,0" transform="translate(-195.864 -61.308)" fill="#372f33"/>
      <path id="Path_6" data-name="Path 6" d="M94.431,11.076a51.488,51.488,0,0,1-5.236-.21c-.794-.072-1.528.3-1.638.824S88,12.7,88.8,12.776A56.107,56.107,0,0,0,94.511,13c.991,0,1.806.523,1.806,1.186V27.023c0,.672-.834,1.2-1.838,1.185a58.323,58.323,0,0,0-20.093,3.428V9.577a61.448,61.448,0,0,0,9.33,2.5,1.638,1.638,0,0,0,1.789-.673c.213-.513-.24-1.044-1.014-1.186A58.49,58.49,0,0,1,73.674,7.1c-.039-.016-.079-.03-.12-.043-1.295-1.711-3.966-2.889-7.043-2.889H51.066V2.948C51.066,1.6,49.41.5,47.376.5H41.027c-2.035,0-3.69,1.1-3.69,2.448V4.167H32.714c-3.077,0-5.749,1.177-7.043,2.889q-.061.02-.12.042A54.907,54.907,0,0,1,4.794,11.076C2.211,11.043,0,12.415,0,14.19V27.023c0,1.757,2.178,3.145,4.793,3.114A54.938,54.938,0,0,1,25.55,34.115q.059.023.12.042c1.3,1.711,3.966,2.889,7.043,2.889H58.654c.8,0,1.453-.432,1.453-.964s-.65-.964-1.453-.964H32.714c-2.74,0-4.969-1.479-4.969-3.3V9.394c0-1.818,2.229-3.3,4.969-3.3h33.8c2.74,0,4.969,1.479,4.969,3.3V31.82c0,1.818-2.229,3.3-4.969,3.3H63.546c-.8,0-1.453.432-1.453.964s.65.964,1.453.964h2.965c3.077,0,5.748-1.177,7.043-2.889q.061-.02.12-.042a54.944,54.944,0,0,1,20.757-3.977c2.686.029,4.793-1.4,4.793-3.114V14.19c0-1.744-2.155-3.145-4.793-3.114ZM3.439,27.864a1.026,1.026,0,0,1-.531-.841V14.19c0-.665.826-1.2,1.838-1.185A58.341,58.341,0,0,0,24.838,9.577v22.06A58.455,58.455,0,0,0,5.356,28.2a3.21,3.21,0,0,1-1.917-.341Zm36.806-23.7V2.948c0-.286.351-.519.783-.519h6.349c.431,0,.783.233.783.519V4.167Zm0,0" transform="translate(0)" fill="#372f33"/>
    </g>
  </g>
</svg>
