<svg xmlns="http://www.w3.org/2000/svg" width="61.023" height="71.184" viewBox="0 0 61.023 71.184"><defs><style>.a{fill:#4aece7;}</style></defs><path class="a" d="M145.973,73.53A20.756,20.756,0,0,0,166.9,52.589,21.071,21.071,0,0,0,146.322,32,20.756,20.756,0,0,0,125.4,52.938,21.071,21.071,0,0,0,145.973,73.53Zm-.588-32.43A11.688,11.688,0,1,1,134.5,52a11.689,11.689,0,0,1,10.884-10.9Z" transform="translate(-115.643 -31.995)"/><path class="a" d="M94.52,267.693a23.573,23.573,0,0,1-17.24-7.468.659.659,0,0,0-1.049.111L64.188,281.421a1.307,1.307,0,0,0,1.144,1.954H78.059a1.313,1.313,0,0,1,1.128.636l6.2,10.312a1.316,1.316,0,0,0,2.32-.127l6.832-15.031,4.973-10.948a.648.648,0,0,0-.715-.906,25.3,25.3,0,0,1-4.274.381Zm17.24-7.484a23.609,23.609,0,0,1-8.342,5.736.6.6,0,0,0-.35.334l-7.1,15.524a.642.642,0,0,0,0,.54l5.386,11.837a1.315,1.315,0,0,0,2.32.127l6.2-10.312a1.313,1.313,0,0,1,1.128-.636h12.727a1.312,1.312,0,0,0,1.144-1.954l-12.044-21.1A.694.694,0,0,0,111.76,260.209Z" transform="translate(-64.015 -223.774)"/></svg>