<svg xmlns="http://www.w3.org/2000/svg" width="61.014" height="60.998" viewBox="0 0 61.014 60.998"><defs><style>.a{fill:#4aece7;}</style></defs><path class="a" d="M114.4,64.016c-.207-.016-.413-.016-.62-.016h-.032a11.662,11.662,0,0,0-7.087,2.4,1.149,1.149,0,0,0-.429.826,1.12,1.12,0,0,0,.365.858l14.268,12.791a1.139,1.139,0,0,0,.731.286h.064a1.077,1.077,0,0,0,.763-.381c1.462-1.684,2.59-2.987,2.59-5.815A11.08,11.08,0,0,0,114.4,64.016ZM64,74.964c0,2.828,1.128,4.131,2.59,5.815a1.077,1.077,0,0,0,.763.381h.064a1.061,1.061,0,0,0,.731-.286L82.431,68.084a1.092,1.092,0,0,0-.064-1.684A11.662,11.662,0,0,0,75.281,64h-.032c-.207,0-.413,0-.62.016A11.094,11.094,0,0,0,64,74.964Z" transform="translate(-64 -64)"/><g transform="translate(2.542 5.085)"><path class="a" d="M129.256,142.079a27.965,27.965,0,1,0-42.583,0l-5.514,5.641a2.349,2.349,0,0,0,.048,3.432,2.694,2.694,0,0,0,1.811.763,2.481,2.481,0,0,0,1.78-.81l5.5-5.482a27.954,27.954,0,0,0,35.337,0l5.339,5.482a2.586,2.586,0,0,0,1.827.81,2.619,2.619,0,0,0,1.78-.763,2.358,2.358,0,0,0,.207-3.432Zm-19.067-17.8a2.231,2.231,0,0,1-2.224,2.224H94.936a2.224,2.224,0,0,1,0-4.449h10.8V105.851a2.224,2.224,0,0,1,4.449,0Z" transform="translate(-80 -96)"/></g></svg>