<svg xmlns="http://www.w3.org/2000/svg" width="66.099" height="61.014" viewBox="0 0 66.099 61.014"><defs><style>.a{fill:#4aece7;}</style></defs><path class="a" d="M53.085,125.014h55.93a5.079,5.079,0,0,0,5.085-5.085V89.423H48V119.93A5.079,5.079,0,0,0,53.085,125.014Zm55.93-50.845h-1.271V72.9a1.275,1.275,0,0,0-1.271-1.271h-5.085a1.275,1.275,0,0,0-1.271,1.271v1.271H95.667V69.085A5.1,5.1,0,0,0,90.583,64H71.516a5.1,5.1,0,0,0-5.085,5.085v5.085H61.982V72.9a1.275,1.275,0,0,0-1.271-1.271H55.627A1.275,1.275,0,0,0,54.356,72.9v1.271H53.085A5.079,5.079,0,0,0,48,79.254v6.356h66.1V79.254A5.079,5.079,0,0,0,109.014,74.169Zm-17.8,0H70.88V69.72a1.275,1.275,0,0,1,1.271-1.271h17.8a1.275,1.275,0,0,1,1.271,1.271Z" transform="translate(-48 -64)"/></svg>